<svg xmlns="http://www.w3.org/2000/svg" viewBox="0 0 512 256">
  <defs>
    <linearGradient id="bg" x1="0%" y1="0%" x2="100%" y2="100%">
      <stop offset="0%" stop-color="#1d1029" />
      <stop offset="48%" stop-color="#5f234f" />
      <stop offset="100%" stop-color="#f2a65a" />
    </linearGradient>
  </defs>
  <rect width="512" height="256" fill="url(#bg)" />
  <circle cx="96" cy="72" r="76" fill="#ffcad4" opacity="0.28" />
  <circle cx="432" cy="56" r="62" fill="#9bf6ff" opacity="0.2" />
  <path d="M18 190c78-58 126-44 214-74s141-77 274-46v142H18z" fill="#130a1a" opacity="0.4" />
  <path d="M48 168c38-27 92-44 136-36 25 4 51 21 74 20 24-1 54-21 84-40 36-23 80-31 146-16" fill="none" stroke="#fff3bf" stroke-linecap="round" stroke-width="16" opacity="0.9" />
  <path d="M72 118c36 10 49 36 38 54-10 18-49 23-73 3-22-19-19-51 35-57z" fill="#f5d26d" opacity="0.95" />
  <circle cx="61" cy="127" r="8" fill="#2a1632" />
  <circle cx="83" cy="141" r="10" fill="#e63946" />
  <circle cx="94" cy="119" r="7" fill="#52b788" />
  <circle cx="83" cy="99" r="8" fill="#4cc9f0" />
  <path d="M222 42c18 17 25 40 9 56-22 22-61 2-103 20" fill="none" stroke="#ffe066" stroke-width="18" stroke-linecap="round" opacity="0.72" />
  <path d="M282 78c48 16 83 49 126 51 22 1 46-9 73-30" fill="none" stroke="#f8f9fa" stroke-width="12" stroke-linecap="round" opacity="0.62" />
  <path d="M324 127c13 11 17 26 16 46" fill="none" stroke="#fff" stroke-width="6" stroke-linecap="round" opacity="0.6" />
  <path d="M362 122c9 13 10 28 5 47" fill="none" stroke="#fff" stroke-width="6" stroke-linecap="round" opacity="0.6" />
  <path d="M398 116c11 12 12 27 8 45" fill="none" stroke="#fff" stroke-width="6" stroke-linecap="round" opacity="0.6" />
  <path d="M438 109c9 15 8 33 0 49" fill="none" stroke="#fff" stroke-width="6" stroke-linecap="round" opacity="0.6" />
</svg>
