<svg xmlns="http://www.w3.org/2000/svg" viewBox="0 0 512 256">
  <defs>
    <linearGradient id="sky" x1="0%" y1="0%" x2="100%" y2="100%">
      <stop offset="0%" stop-color="#77d7ff" />
      <stop offset="100%" stop-color="#d1fff9" />
    </linearGradient>
  </defs>
  <rect width="512" height="256" fill="url(#sky)" />
  <g opacity="0.98">
    <rect x="0" y="136" width="512" height="120" fill="#6b4f2a" />
    <rect x="0" y="110" width="512" height="34" fill="#67a94d" />
    <rect x="76" y="116" width="66" height="66" fill="#7a5d37" />
    <rect x="76" y="86" width="66" height="30" fill="#74b255" />
    <rect x="160" y="98" width="84" height="84" fill="#8c673a" />
    <rect x="160" y="62" width="84" height="36" fill="#74b255" />
    <rect x="276" y="76" width="116" height="106" fill="#8a6437" />
    <rect x="276" y="30" width="116" height="46" fill="#7fc25f" />
    <rect x="408" y="128" width="62" height="54" fill="#7f5d33" />
    <rect x="408" y="102" width="62" height="26" fill="#74b255" />
  </g>
  <rect x="328" y="58" width="18" height="18" fill="#f1e8b8" />
  <rect x="372" y="58" width="18" height="18" fill="#f1e8b8" />
  <rect x="150" y="48" width="22" height="22" fill="#ffffff" opacity="0.68" />
  <rect x="176" y="48" width="22" height="22" fill="#ffffff" opacity="0.68" />
  <rect x="192" y="166" width="26" height="26" fill="#57a5ff" opacity="0.8" />
</svg>
